<mxfile host="app.diagrams.net" modified="2023-12-12T11:15:40.136Z" agent="Mozilla/5.0 (Macintosh; Intel Mac OS X 10_15_7) AppleWebKit/537.36 (KHTML, like Gecko) Chrome/120.0.0.0 Safari/537.36" version="22.1.7" etag="0EOR6hH97sWEiaTKsDEe" type="github">
  <diagram name="Page-1" id="iaDX9b51ALLt4_Th4264">
    <mxGraphModel>
      <root>
        <mxCell id="0" />
        <mxCell id="1" parent="0" />
      </root>
    </mxGraphModel>
  </diagram>
</mxfile>
